<?xml version="1.0" standalone="no"?>
<!DOCTYPE svg PUBLIC "-//W3C//DTD SVG 20010904//EN"
 "http://www.w3.org/TR/2001/REC-SVG-20010904/DTD/svg10.dtd">
<svg version="1.0" xmlns="http://www.w3.org/2000/svg"
 width="260.000000pt" height="260.000000pt" viewBox="0 0 260.000000 260.000000"
 preserveAspectRatio="xMidYMid meet">
<metadata>
Created by potrace 1.14, written by Peter Selinger 2001-2017
</metadata>
<g transform="translate(0.000000,260.000000) scale(0.100000,-0.100000)"
fill="#000000" stroke="none">
<path d="M1440 1720 c-138 -13 -239 -58 -288 -127 -30 -44 -42 -90 -42 -162 0
-90 32 -158 93 -200 43 -29 68 -38 257 -95 137 -41 186 -81 142 -117 -49 -39
-251 -31 -396 15 l-74 23 -7 -120 c-8 -134 -11 -128 70 -151 131 -38 372 -48
498 -21 140 29 235 92 272 181 20 47 19 167 0 225 -36 104 -101 147 -308 204
-129 35 -187 58 -187 74 0 20 43 43 101 52 83 14 179 3 254 -27 32 -13 60 -22
61 -21 0 1 4 50 7 108 l7 106 -43 16 c-95 36 -265 51 -417 37z"/>
<path d="M660 1240 l0 -480 190 0 190 0 0 480 0 480 -190 0 -190 0 0 -480z"/>
</g>
</svg>
